<svg version="1.0" xmlns="http://www.w3.org/2000/svg" display="none" id="animanman" width="293.3" height="293.3" viewBox="0 0 220 220"><path d="m73 24-4 1-1 1c1 2 1 2-1 1s-8 1-7 2h-3l-2 1-2 1v1c-2-2-18 15-18 18l-1 1-4 3v1c2-1 1 0 0 1-2 1-3 3-2 4l-1 1-1 1-1 2-2 4v1l-1 1c1 1 0 1-1 2v3c-1-1-3 2-4 6v17l1 1-1 2-1 1 1 2 1 1h-1v4l-1 2h1v10c-1 1 0 3 1 6l3 4c1 4 1 5 3 5l1 1 5 4 5 3h1l1 1c0 1 0 2 1 1l1 1 4 5c3 3 5 4 7 4l4 1h5a105 105 0 0 0 41 1l7 7h1c0 2 3 7 5 7 1 0 3 3 3 5l1 2 1 1c-1 1 0 4 1 3l1 1v2l1 2v1l1 2c0 5 10 22 12 22l1 1 1 3c1 3 2 3 6 3 3 0 4 0 3-1v-3h-1c-2 1-2 1-1-1v-1h-1l-1-4c-2-3-2-3 0-3 1 1 5-2 5-4l-3-4-3-4c1-1 0-2-1-1l-1-1c1-1-4-8-6-8l-1-1-2-4-2-3c0-1-5-6-6-5l-1-2v-2l-1-1-1-3-2-1 1-1v-1l-2-1c0 1-1 0 0 0l-1-4c-2-3-2-3 0-3 2 1 3 1 4-1h1c-1 1-1 1 0 0l5-3 4-3 1-1c1 0 4-2 6-5l4-5 2-1c1-1 2-2 3-1l1 1 3 2 3 4 5 2 1 1 1 2 2 1h1l1 1 1 1 2 3 2 3 4 2 4 4 2 3v-1c-1-1-1-1 0 0l4 2 2 2c-1 1 1 3 3 5l3 4 1 1 2 1 7 7 4 6h1c1-1 1-1 2 1l1 1 1 1c0 2 1 2 3 2l1 1 1 3c6 6 10-1 5-7l-4-2c-2 0-2 0-1-1v-1l-2-1h-1l-1-1c1 0-3-5-9-10l-9-11c0-1-4-3-5-2l-1-1v-2c-1 0-3-1-3-3-1-2-1-2-3-2-1 1-2 0-3-1s-1-1 0 0h3l-2-2c-2 0-3-2-3-3l-3-3-7-4-4-4-5-3v-1c0-2-3-4-4-3l-1-2-1-2v-3c1-2 2-3 3-2 2 1 3 0 5-2l1-3 1-4 3-6V94l-1-4c0-2-1-3-2-3v-3h-1v1l-1-4v-6l-1-5-2-4-2-4-2-3-3-6c-1-4-3-7-5-8l-13-11-3-2-1-1c0-1-6-4-7-3l-1-1c0-2-9-3-11-2h-2c1-1-3-2-5-1h-2v-1a86 86 0 0 0-21 0l-3 1zm5 7h-2l1-1 1 1zm26 3c-1 1-1 1 1 1h3l1 1 1 1 5 1 4 2 2 2c2 2 5 3 3 1h1l2 3 3 2 2 2 1 2 1 1 1 2v1l2 2v11c-1 4 0 6 4 5 3 0 3 0 2 1-1 2-3 2-5 1h-1l1 1 2 3c0 2 0 2-2 1-1 0-2 0-1 1l1 1 1 2 2 2 1 1v1l1 1-2 1c-2-1-4 3-2 4v2c-3 3-3 4-1 3v1l-2 3-1 4v2l-1 2-1 2-2 5-2 1-1 1 1 1v1c0 2 0 2-2 0h-2l-1 1-3 1-5 2c-5 1-6 2-5 3h-3l-2 1h-1c-2 0-2 0-1 1h-6l-5 1h-3l-3 1c1 1-3 1-6-1H68c-4-1-5 0-5 1l-1 1v-1l-3-1-2-1h-2l-1-1-2-3-2-1-1-1c-2 0-6-6-6-7 1-1 0-3-1-4v-2l-1-2v-5l-1-7c0-10 0-13-2-12v-1h1l1-3v-4l1-5 2-6 1-3 4-6 6-8c3-4 14-11 17-11l3-1 5-1h5l2-2h1l2 2 1-2h6l5-1 1-2c3-1 4 0 2 1zm-20 2-1 1h-1l1-1h1zm-24 7-2 2c-1 1-1 1 0 0l2-2zm-15 9-1 1-2 1v-2h3zm-5 5c-2 2-2 2-2-1l2-1v2zm-3 5-3 4v-4l1-1 2 1zm103 7-1-2c0-2 0-2 1-1v3zm7 7 1 4v1c-1 1-1 1 1 1v1l-1 6v4l-1 3v5h-4c-3 1-3 1-3-2l1-2 1 2 1 1c2 0 2 0 0-2l-1-1-1-2-1-2h1l1-1c1 1 1 0 2-1V73l-1-1c-1 1-2 0-1-1l1-1 1-2v-2c0-1 3 6 3 10zM34 68c0 2-2 2-2 1v-1h2zm-1 6v2a35 35 0 0 0 0 11l1 2-1 2v1c0 2-1 2-3 1l-2-7 1-6c2 0 1-2 0-4-1-1-1-1 0 0l2-1c-1-1 1-4 2-4v3zm-6 11-1 1c-1 1-2 0-1-1 0-1 2-2 2 0zm113 21-2-1c-1-1-1-1 0 0 1 0 2 0 1 1zm14 0-2 1c-2 0-2 0 0-1l2-1v1zm6 2h-4v-1c1-1 4-1 4 1zm-132 1-1 1h-1l1-1h1zm10 1-1 2v-2l2-1-1 1zm-2 4-2-2h1l1 2zm-12 0h-1l1-2v2zm11 3h1l2-2-1 2c-2 2-3 3-3 0l-2-3h1l2 3zm-16-1c-1 1-1 1 0 0l1-2-1 2zm7 4v2l1 2 1 1-2 2v-2l-1-2-1-4v-2l1 1 1 2zm13 2v4l1 2 2 1 1 2-3-1c-3-2-6-9-4-8h2l2-1-1 1zm100 3v1l-2-2c0-2 2-2 2 1zm-2 3v2l-2-2v-1l2 1zm-90 2c1 1 1 1 0 0l-2-2 2 2zm6 1h-2l-1-1h1l2 1zm80 2-1-1c-1-1-1-1 0 0l1 1zm-2 3v3h-1c-1-1-1-5 1-5v2zm-81 1h-2l-2-1h2l2 1zm63 0-2 1c-1 1-2 2-4 1h-2l-1 1c-1-2 2-4 5-3l4-1h1l-1 1zm-50 4 1 3 1 1h3l1 1 3 1 2-1h10l8 1h1l2-1c1 1-2 3-4 2l-1 1h-4c-2 0-2 0-1 1h-5c-5 1-22 0-25-3l-2-1-3-1-1-2c1 1 2 0 3-1h2c-1 1 3 2 4 1h1c0 1 1 1 2-1l2-1zm58 1c-1 3-2 4-2 1l1-3 1 2zm-30 2-1 1v-2l1 1zm25 1-3 2h-1l-1-1h-1l2-1 3-1h2l-1 1zm-13 1-1-1c-1-1-1-1 0 0l1 1zm-54 0c1 1 0 2-1 1v-1h1zm120 1-2 2v-2l1-1 1 1zm-64 13v1h-2v-2h1l1 1zm73 0v1l-1-2c0-1 1-1 1 1zm-43 35v4c2 1 2 4 1 4l-3-5h-3l3-3h2zm-6 3-1 1-1-3 1-1 1 3z"/><path d="m136 79 2 1h1l-1-1h-2zM137 89v3l1-2c0-2 0-2 2-1v-1c-3-4-4-4-4 1zM142 95h2l-2-1v1zM160 115c-1 1-1 1 0 0l1-2-1 2z"/></svg>
